<?xml version="1.0" standalone="no"?>
<!DOCTYPE svg PUBLIC "-//W3C//DTD SVG 20010904//EN"
 "http://www.w3.org/TR/2001/REC-SVG-20010904/DTD/svg10.dtd">
<svg version="1.0" xmlns="http://www.w3.org/2000/svg"
 width="3000.000000pt" height="3000.000000pt" viewBox="0 0 3000.000000 3000.000000"
 preserveAspectRatio="xMidYMid meet">

<g transform="translate(0.000000,3000.000000) scale(0.100000,-0.100000)"
fill="#000000" stroke="none">
<path d="M6530 23928 l0 -4513 1310 1310 1310 1310 0 1887 0 1888 4138 0 4137
0 3493 -3493 3492 -3492 -4618 -4618 -4617 -4617 -920 920 -920 920 3700 3700
3700 3700 -1850 1850 -1850 1850 -1860 0 -1860 0 -3393 -3393 -3392 -3392 0
-615 0 -615 3858 -3858 3857 -3857 930 0 930 0 3235 3235 3235 3235 920 -920
920 -920 -3620 -3620 -3620 -3620 -4012 0 -4013 0 0 1888 0 1887 -1310 1310
-1310 1310 0 -4513 0 -4512 5868 0 5867 0 4071 4073 c2644 2645 4095 4104
4141 4162 472 607 657 1335 528 2088 -78 462 -286 899 -599 1262 -38 44 -497
509 -1020 1033 l-951 952 991 993 c607 608 1016 1025 1056 1077 238 312 386
613 478 975 63 247 75 353 75 650 0 297 -12 402 -75 651 -48 187 -92 309 -179
489 -81 169 -155 290 -275 450 -79 106 -535 567 -4040 4073 l-3951 3952 -5992
0 -5993 0 0 -4512z m9945 -4568 l540 -540 -2768 -2768 -2767 -2767 -922 923
-923 922 2385 2385 2385 2385 765 0 765 0 540 -540z"/>
</g>
</svg>
